<?xml version="1.0" encoding="UTF-8" standalone="no"?>
<svg xmlns:dc="http://purl.org/dc/elements/1.1/" xmlns:cc="http://creativecommons.org/ns#" xmlns:rdf="http://www.w3.org/1999/02/22-rdf-syntax-ns#" xmlns:svg="http://www.w3.org/2000/svg" xmlns="http://www.w3.org/2000/svg" viewBox="0 0 682.69336 69.306664" height="69.306664" width="682.69336" xml:space="preserve" id="svg2" version="1.1"><metadata id="metadata8"><rdf:RDF><cc:Work rdf:about=""><dc:format>image/svg+xml</dc:format><dc:type rdf:resource="http://purl.org/dc/dcmitype/StillImage"/></cc:Work></rdf:RDF></metadata><defs id="defs6"/><g transform="matrix(1.3333333,0,0,-1.3333333,0,69.306667)" id="g10"><g transform="scale(0.1)" id="g12"><path id="path14" style="fill:#ffffff;fill-opacity:1;fill-rule:nonzero;stroke:none" d="m 1514.04,437.707 -4.57,-8.391 -0.87,-1.875 -109.3,-193.32 h -382.81 l 110.81,193.32 c 7.41,12.547 23.19,22.93 35.61,22.93 h 344.94 c 4.49,0 7.74,-4.238 7.74,-8.098 0,-1.757 -0.5,-2.664 -1.55,-4.566 m 205.4,81.676 h -551.32 -1.66 -33.32 c -24.3,0 -55.5,-19.52 -69.14,-43.992 L 790.547,0 h 91.75 l 93.777,164.199 H 1359.9 L 1266.72,0 h 233.18 l 253.03,440.516 c 25.1,43.847 10.26,78.867 -33.49,78.867"/><path id="path16" style="fill:#ffffff;fill-opacity:1;fill-rule:nonzero;stroke:none" d="m 2504.39,0 241.76,427.559 5.44,10.468 c 1.13,2 1.72,2.957 1.72,4.364 0,4.406 -3.74,8.195 -7.95,8.195 h -11.34 -320.1 c -12.43,0 -28.04,-10.559 -35.36,-23.027 L 2136.96,0 h -231.82 c 0,0 -0.26,-0.46875 205.14,357.43 l 68.07,117.871 c 13.91,24.64 44.9,44.043 69.17,44.043 h 33.83 539.01 c 43.38,0 58.5,-34.981 33.65,-78.906 L 2600.24,0 h -95.85"/><path id="path18" style="fill:#ffffff;fill-opacity:1;fill-rule:nonzero;stroke:none" d="m 867.41,438.152 -5.105,-8.554 -1.008,-1.7 L 793.867,307.695 670.594,93.5547 C 663.66,80.9766 647.586,71.0742 635.156,71.0742 L 601.379,70.5469 H 283.887 l 202.422,358.3481 12.546,21.933 h 361.946 c 4.16,0 7.812,-4.238 7.812,-8.105 0,-1.746 -0.547,-2.657 -1.203,-4.571 m 61.067,81.684 H 298.426 L 0,0.449219 664.695,0 c 24.602,0 55.422,20.0586 69.477,44.043 l 67.965,118.32 160.176,278.614 c 24.875,43.836 9.875,78.859 -33.836,78.859"/><path id="path20" style="fill:#ffffff;fill-opacity:1;fill-rule:nonzero;stroke:none" d="m 3347.89,0 h -566.98 c -36.02,0 -66.02,42.5391 -43.42,82.6367 22.15,40.0973 210.48,363.2693 226.19,391.4063 15.7,28.25 45.95,45.449 75.24,45.449 h 609.98 l -39.62,-67.89 h -395.44 c -29.33,0 -48.66,-10.137 -63.62,-36.692 l -61.82,-104.551 414.17,0.254 -41.14,-70.222 -411.34,0.703 c 0,0 -61.7,-104.141 -75.79,-127.559 -14.25,-23.2811 1.29,-43.2616 25.93,-43.2616 h 387.79 L 3347.89,0"/><path id="path22" style="fill:#ffffff;fill-opacity:1;fill-rule:nonzero;stroke:none" d="M 2115.88,519.5 1812.99,0 h -227.31 l 305.88,519.5 h 224.32"/><path id="path24" style="fill:#ffffff;fill-opacity:1;fill-rule:nonzero;stroke:none" d="M 3960.53,69.5117 3707.56,292.773 c -23.22,21.368 -31.18,55.332 -31.18,88.758 0,73.305 54.57,131.008 126.17,137.551 3.78,0.301 7.61,0.449 11.46,0.449 h 560.35 l -40.06,-67.629 -481.47,0.528 262.86,-241.825 c 14.08,-16.25 25.7,-43.417 25.7,-68.105 C 4141.39,63.6328 4077.86,0 3999.18,0 h -588.35 l 39.85,69.5117 h 509.85"/><path id="path26" style="fill:#ffffff;fill-opacity:1;fill-rule:nonzero;stroke:none" d="m 4819.21,0 h -566.98 c -36.03,0 -66.03,42.5391 -43.42,82.6367 22.15,40.0973 210.48,363.2693 226.19,391.4063 15.69,28.25 45.95,45.449 75.23,45.449 h 609.98 l -39.62,-67.89 h -395.43 c -29.33,0 -48.66,-10.137 -63.62,-36.692 l -61.82,-104.551 414.17,0.254 -41.14,-70.222 -411.34,0.703 c 0,0 -61.7,-104.141 -75.8,-127.559 -14.24,-23.2811 1.29,-43.2616 25.93,-43.2616 h 387.8 L 4819.21,0"/></g></g></svg>