<?xml version="1.0" encoding="utf-8"?>
<!-- Generator: Adobe Illustrator 22.0.1, SVG Export Plug-In . SVG Version: 6.00 Build 0)  -->
<svg version="1.1" id="Livello_1" xmlns="http://www.w3.org/2000/svg" xmlns:xlink="http://www.w3.org/1999/xlink" x="0px" y="0px"
	 viewBox="0 0 29 25" style="enable-background:new 0 0 29 25;" xml:space="preserve">
<style type="text/css">
	.st0{fill:#FF001A;}
</style>
<title>DAINESE_</title>
<desc>Created with Sketch.</desc>
<g id="Header-_x26_-Footer">
	<g id="Header_dropdown_equestrian" transform="translate(-48.000000, -135.000000)">
		<g id="Group-2">
			<g id="DAINESE_" transform="translate(48.000000, 135.000000)">
				<g id="Fill-1">
					<path class="st0" d="M21.9,2.7L28.8,0L14.4,24.8L0,0l6.9,2.8c0.2,0.1,0.4,0.1,0.7,0.1c0.3,0,0.6-0.1,0.8-0.2
						c1.8-1,3.9-1.6,6-1.6c2.1,0,4.2,0.6,6,1.6c0.2,0.1,0.5,0.2,0.8,0.2C21.5,2.9,21.7,2.8,21.9,2.7L21.9,2.7z M13.4,14.3V8.5
						L9.1,6.8L13.4,14.3z M15.4,14.3l4.3-7.5l-4.3,1.7V14.3z"/>
				</g>
			</g>
		</g>
	</g>
</g>
</svg>
