<?xml version="1.0" encoding="utf-8"?>
<!-- Generator: Adobe Illustrator 27.3.0, SVG Export Plug-In . SVG Version: 6.00 Build 0)  -->
<svg version="1.1" id="Livello_1" xmlns="http://www.w3.org/2000/svg" xmlns:xlink="http://www.w3.org/1999/xlink" x="0px" y="0px"
	 viewBox="0 0 282.8 24.1" style="enable-background:new 0 0 282.8 24.1;" xml:space="preserve">
<style type="text/css">
	.st0{fill:#FFFFFF;}
</style>
<g>
	<polygon class="st0" points="279.7,0 279.7,21 258.8,0 254.2,0 254.2,23.9 257.3,23.9 257.3,2.9 278.2,23.9 282.8,23.9 282.8,0 	
		"/>
	<rect x="215.4" y="0" class="st0" width="3.1" height="23.9"/>
	<path class="st0" d="M235.9,14.7L235.9,14.7h11.7V17c0,3.2-1.9,4.3-5,4.3h-12.1c-3,0-5.3-0.9-5.3-5V7.6c0-4.1,2.4-5,5.3-5h8
		c7.6,0,8.9,0.3,8.9,4.7h2.9V6.5c0-5.4-4.4-6.4-8.5-6.4h-11.7c-6.2,0-8.1,2.8-8.1,8.8v6.4c0,5.9,2,8.8,8.1,8.8H243
		c5.7,0,7.7-2.3,7.7-8.6v-3.2h-14.8V14.7z"/>
	<path class="st0" d="M36.5,23.9h23.9V0H36.5V23.9z M45,8.6h7v6.7h-7V8.6z"/>
	<polygon class="st0" points="63.8,23.9 72.2,23.9 72.2,8.6 76.3,8.6 76.3,23.9 84.2,23.9 84.2,8.6 88.3,8.6 88.3,23.9 96.7,23.9 
		96.7,0 63.8,0 	"/>
	<polygon class="st0" points="162.7,12.9 181.3,12.9 181.3,10.3 162.7,10.3 162.7,2.7 182,2.7 182,0 159.7,0 159.7,23.9 182.2,23.9 
		182.2,21.3 162.7,21.3 	"/>
	<path class="st0" d="M100.3,23.9h23.9V0h-23.9V23.9z M108.8,8.6h7v6.7h-7V8.6z"/>
	<path class="st0" d="M203.3,10.5h-9.1c-4.8,0-5.7-0.9-5.7-3.7c0-3.9,2.1-4.2,8.1-4.2h3.3c8.1,0,8.5,0.7,8.5,4.4h2.9V6.2
		c0-4.2-1.9-6.2-9.6-6.2H195c-6.4,0-9.4,1.2-9.4,6.6c0,6.2,3.1,6.8,12.5,6.8h5.9c3.8,0,5,0.8,5,3.7c0,3.4-1.3,4.3-5.8,4.3h-9.6
		c-3.8,0-5-1.1-5-3.4v-1.7h-2.9v1.7c0,5.1,4,6,8.5,6h8.6c4.6,0,9.2-0.4,9.2-6.2v-1.5C211.8,12.3,209.3,10.5,203.3,10.5z"/>
	<path class="st0" d="M146.4,0h-18.4v23.9h18.3c7.8,0,9.8-3.2,9.8-12C156.1,2.5,154,0,146.4,0z M153,13.3c0,7.2-2.6,8-6.3,8H131V2.7
		h16.2c3.8,0,5.8,1.3,5.8,8.2V13.3z"/>
	<polygon class="st0" points="0,23.9 8.4,23.9 8.4,8.6 12.5,8.6 12.5,23.9 20.4,23.9 20.4,8.6 24.5,8.6 24.5,23.9 32.9,23.9 32.9,0 
		0,0 	"/>
</g>
</svg>
