<?xml version="1.0" encoding="utf-8"?>
<!-- Generator: Adobe Illustrator 27.0.1, SVG Export Plug-In . SVG Version: 6.00 Build 0)  -->
<svg version="1.1" id="Livello_1" xmlns="http://www.w3.org/2000/svg" xmlns:xlink="http://www.w3.org/1999/xlink" x="0px" y="0px"
	 viewBox="0 0 566.9 170.1" style="enable-background:new 0 0 566.9 170.1;" xml:space="preserve">
<style type="text/css">
	.st0{fill:#FFFFFF;}
</style>
<g>
	<g>
		<path class="st0" d="M128.8,56h0.8c2.2,0,42.7,0,43.1,0c1.6,0,3.4-1,4-2.3l1.5-2.6c0.2-0.4,0.2-0.6,0.2-1c0-1-0.6-1.7-1.1-2
			c-0.5-0.3-0.9-0.4-2.2-0.4L20.6,47.7c-1.6,0-3.3,0.9-4,2.2h0L15,52.5c-0.5,0.9-0.3,1.7,0,2.4c0.2,0.4,0.9,1.2,2.1,1.2h0
			c0,0,34.8,0,40.8,0l2.4,0l-1.2,2.1c-2.6,4.5-11.3,19.4-11.3,19.4c-0.1,0.2-0.1,0.4,0,0.7c0.2,0.3,0.6,0.6,0.9,0.6h0l66.3,0
			c0.3,0,0.6-0.1,0.8-0.4l0.1-0.1l0,0l0.2-0.3c0.7-1.3,11.3-19.5,12.3-21.3L128.8,56z"/>
		<path class="st0" d="M107.6,91.6c-0.2-0.3-0.4-0.4-0.7-0.4l-66.2,0c-0.5,0-0.9,0.2-1.1,0.6L39.5,92c-0.2,0.4-15,26-15.8,27.3
			c-0.3,0.7-0.2,1.5,0.2,2.2c0.3,0.5,0.9,1.1,2,1.1h0l60.7,0c3.7,0,4.5-1.4,4.8-2l0,0l0.1-0.2l0,0l16.1-27.8
			C107.8,92.3,107.8,91.9,107.6,91.6"/>
		<path class="st0" d="M347.6,48.7c-0.4-0.7-1.1-1.1-1.9-1.1h0l-109.2,0.1c-18.1,0-30.6,4.6-43.8,11.5c-12,6.3-22.1,17.6-22.6,18.2
			c-0.3,0.3-0.2,0.7-0.1,1c0.1,0.2,0.3,0.5,0.8,0.5h0l66.8,0c0.9,0,1.8-0.5,2.2-1.2l3.7-6.4C249.6,60.4,257,56,269.1,56l72.6,0
			c2.2,0,3.7-0.7,4.4-2l0-0.1c1.1-1.9,1.5-2.6,1.7-2.8C348.1,50.3,348,49.4,347.6,48.7"/>
		<path class="st0" d="M161.7,91.9c-0.8,2.5-1.2,7.2-1.2,7.8c0.3,8.1,4.1,14.2,11.3,18c6,3.2,14.3,4.8,24.4,4.8h0l107.5-0.1
			c1.7,0,2.9-0.6,4.1-2.3l1.4-2.6c0.4-0.7,0.3-1.6-0.1-2.3c-0.4-0.7-1.2-1.1-2-1.1l-74.3,0c-2.9,0-5.6-1.5-7.1-4.1
			c-1.5-2.5-1.6-5.5-0.3-7.8l5.8-10c0.1-0.2,0.1-0.6-0.1-0.9c-0.2-0.4-0.6-0.4-0.7-0.4c0,0-66,0-67.4,0
			C162.3,91,161.8,91.4,161.7,91.9"/>
		<path class="st0" d="M405.9,95.1l0.7,0.6c1.8,1.7,25.9,24.4,26.9,25.4c1,0.8,1.9,1.3,3.4,1.3l74.1,0c1.5,0,2.1-0.9,2.3-1.4
			c0.4-0.9,0.2-1.9-0.4-2.5l-28.5-26.7l-0.1,0l-0.4-0.5c-0.2-0.1-0.4-0.2-0.7-0.2l-103,0l-0.6,0.1l-57.4,26.3
			c-1.8,0.9-1.6,2.5-1.4,2.9c0.2,1,1.1,2,2.5,2l21.2,0c1.2,0,2.2-0.2,2.8-0.7l0.2-0.1c0.2-0.1,55-25.1,57.4-26.2L405.9,95.1z"/>
		<path class="st0" d="M552.2,49.4c-0.2-0.9-1-2-2.6-2l-21.5,0c-1.2,0-2.3,0.2-3.1,0.7l-0.1,0.1l0,0l-58.1,26.6l-0.7-0.6
			c-1.8-1.7-25.7-24.3-26.7-25.3c-1.1-0.9-1.9-1.4-3.3-1.4h0l-74.8,0c-1.4,0-1.9,1-2.1,1.5c-0.3,0.7-0.3,1.7,0.3,2.3l28.6,26.8
			l0.3,0.2c0.2,0.1,0.8,0.2,1,0.3l103.5,0l0.6-0.1l57.7-26.3C552.2,51.7,552.4,50.4,552.2,49.4"/>
	</g>
</g>
</svg>
